# xmcd
# Track frame offsets:
# 150
# 13870
# 30467
# 44572
# 55992
# 69315
# 84230
# 100465
# 113245
# 126279
# 142880
# 159397
#
# Disc length: 2295 seconds
# Revision: 0
# Processed by: cddbd v1.4PL0 Copyright (c) Steve Scherf et al.
# Submitted via: VisiTrax 2.9.5.180 - For more info visit www.synapsa.com
#
DISCID=9c08f50c
DTITLE=Glynn Martin - Take a ride on real country
DYEAR=2000
DGENRE=
TTITLE0=As if she gives a damn
TTITLE1=There's never been a day I didn't care
TTITLE2=The last train home to Georgia
TTITLE3=The ride
TTITLE4=All the wine in California
TTITLE5=Drinking from the bible
TTITLE6=Fiddlin' Joe
TTITLE7=What life is all about
TTITLE8=Daddy whipped the devil
TTITLE9=Never too tough to be tender
TTITLE10=Old pictures
TTITLE11=The cutest thing he ever laid his lies on
EXTD=
EXTT0=
EXTT1=
EXTT2=
EXTT3=
EXTT4=
EXTT5=
EXTT6=
EXTT7=
EXTT8=
EXTT9=
EXTT10=
EXTT11=
PLAYORDER=
